<svg xmlns="http://www.w3.org/2000/svg" width="512" height="108" viewBox="0 0 512 108" role="img" aria-labelledby="title">
  <title id="title">Download Ittan</title>
  <rect x="0.5" y="0.5" width="511" height="107" rx="22" fill="#fff" stroke="#d1d1d6"/>
  <g transform="translate(38 30) scale(2.4)" fill="none" stroke="#111" stroke-width="1.1" stroke-linecap="round" stroke-linejoin="round">
    <path d="M9.55 2.05a1 1 0 0 1 .9 0l6.6 3.3c.3.15.45.4.45.75v7.75c0 .35-.15.6-.45.77l-6.6 3.52a1 1 0 0 1-.9 0l-6.6-3.52c-.3-.17-.45-.42-.45-.77V6.1c0-.35.15-.6.45-.75Z"/>
    <path d="m2.75 5.7 6.8 3.63a1 1 0 0 0 .9 0l6.8-3.63M10 9.55v8.45"/>
    <path d="M5.25 9v3.65M7.55 10.2v3.65" stroke-width="1.3"/>
  </g>
  <text x="105" y="68" fill="#111" font-family="-apple-system, BlinkMacSystemFont, 'Segoe UI', sans-serif" font-size="40" font-weight="600">Download Ittan</text>
</svg>
